<svg xmlns = "http://www.w3.org/2000/svg"
     fill = "none"
     version = "1.1"
     width = "38"
     height = "38"
     viewBox = "0 0 38 38">
	<defs>
		<clipPath id = "master_svg0_1_442">
			<rect x = "0"
			      y = "0"
			      width = "38"
			      height = "38"
			      rx = "0"/>
		</clipPath>
	</defs>
	<g style = "mix-blend-mode:passthrough"
	   clip-path = "url(#master_svg0_1_442)">
		<g style = "mix-blend-mode:passthrough">
			<path d = "M15.83333,28.5C14.958882,28.5,14.25,29.208882,14.25,30.08333C14.25,30.95778,14.958882,31.66667,15.83333,31.66667C15.83333,31.66667,15.83333,28.5,15.83333,28.5C15.83333,28.5,15.83333,28.5,15.83333,28.5ZM22.16667,31.66667C23.04111,31.66667,23.75,30.95778,23.75,30.08333C23.75,29.208882,23.04111,28.5,22.16667,28.5C22.16667,28.5,22.16667,31.66667,22.16667,31.66667C22.16667,31.66667,22.16667,31.66667,22.16667,31.66667ZM15.83333,31.66667C15.83333,31.66667,22.16667,31.66667,22.16667,31.66667C22.16667,31.66667,22.16667,28.5,22.16667,28.5C22.16667,28.5,15.83333,28.5,15.83333,28.5C15.83333,28.5,15.83333,31.66667,15.83333,31.66667C15.83333,31.66667,15.83333,31.66667,15.83333,31.66667Z"
			      fill = "#FFFFFF"
			      fill-opacity = "1"/>
		</g>
		<g style = "mix-blend-mode:passthrough">
			<path d = "M20.583418046875,7.916665876464844C20.583418046875,7.042217876464844,19.874528046875,6.333335876464844,19.000078046875,6.333335876464844C18.125630046875,6.333335876464844,17.416748046875,7.042217876464844,17.416748046875,7.916665876464844C17.416748046875,7.916665876464844,20.583418046875,7.916665876464844,20.583418046875,7.916665876464844C20.583418046875,7.916665876464844,20.583418046875,7.916665876464844,20.583418046875,7.916665876464844ZM17.416748046875,30.083335876464844C17.416748046875,30.957835876464845,18.125630046875,31.666635876464845,19.000078046875,31.666635876464845C19.874528046875,31.666635876464845,20.583418046875,30.957835876464845,20.583418046875,30.083335876464844C20.583418046875,30.083335876464844,17.416748046875,30.083335876464844,17.416748046875,30.083335876464844C17.416748046875,30.083335876464844,17.416748046875,30.083335876464844,17.416748046875,30.083335876464844ZM17.416748046875,7.916665876464844C17.416748046875,7.916665876464844,17.416748046875,30.083335876464844,17.416748046875,30.083335876464844C17.416748046875,30.083335876464844,20.583418046875,30.083335876464844,20.583418046875,30.083335876464844C20.583418046875,30.083335876464844,20.583418046875,7.916665876464844,20.583418046875,7.916665876464844C20.583418046875,7.916665876464844,17.416748046875,7.916665876464844,17.416748046875,7.916665876464844C17.416748046875,7.916665876464844,17.416748046875,7.916665876464844,17.416748046875,7.916665876464844Z"
			      fill = "#FFFFFF"
			      fill-opacity = "1"/>
		</g>
		<g style = "mix-blend-mode:passthrough">
			<path d = "M7.916748046875,9.500005876464844C7.916748046875,10.374445876464844,8.625630046875,11.083335876464844,9.500078046875,11.083335876464844C10.374528046875,11.083335876464844,11.083418046875,10.374445876464844,11.083418046875,9.500005876464844C11.083418046875,9.500005876464844,7.916748046875,9.500005876464844,7.916748046875,9.500005876464844C7.916748046875,9.500005876464844,7.916748046875,9.500005876464844,7.916748046875,9.500005876464844ZM9.500078046875,7.916665876464844C9.500078046875,7.916665876464844,9.500078046875,6.333335876464844,9.500078046875,6.333335876464844C8.625630046875,6.333335876464844,7.916748046875,7.042217876464844,7.916748046875,7.916665876464844C7.916748046875,7.916665876464844,9.500078046875,7.916665876464844,9.500078046875,7.916665876464844C9.500078046875,7.916665876464844,9.500078046875,7.916665876464844,9.500078046875,7.916665876464844ZM28.500048046875,7.916665876464844C28.500048046875,7.916665876464844,30.083448046875,7.916665876464844,30.083448046875,7.916665876464844C30.083448046875,7.042217876464844,29.374548046875,6.333335876464844,28.500048046875,6.333335876464844C28.500048046875,6.333335876464844,28.500048046875,7.916665876464844,28.500048046875,7.916665876464844C28.500048046875,7.916665876464844,28.500048046875,7.916665876464844,28.500048046875,7.916665876464844ZM26.916748046875,9.500005876464844C26.916748046875,10.374445876464844,27.625648046875,11.083335876464844,28.500048046875,11.083335876464844C29.374548046875,11.083335876464844,30.083448046875,10.374445876464844,30.083448046875,9.500005876464844C30.083448046875,9.500005876464844,26.916748046875,9.500005876464844,26.916748046875,9.500005876464844C26.916748046875,9.500005876464844,26.916748046875,9.500005876464844,26.916748046875,9.500005876464844ZM11.083418046875,9.500005876464844C11.083418046875,9.500005876464844,11.083418046875,7.916665876464844,11.083418046875,7.916665876464844C11.083418046875,7.916665876464844,7.916748046875,7.916665876464844,7.916748046875,7.916665876464844C7.916748046875,7.916665876464844,7.916748046875,9.500005876464844,7.916748046875,9.500005876464844C7.916748046875,9.500005876464844,11.083418046875,9.500005876464844,11.083418046875,9.500005876464844C11.083418046875,9.500005876464844,11.083418046875,9.500005876464844,11.083418046875,9.500005876464844ZM9.500078046875,9.500005876464844C9.500078046875,9.500005876464844,28.500048046875,9.500005876464844,28.500048046875,9.500005876464844C28.500048046875,9.500005876464844,28.500048046875,6.333335876464844,28.500048046875,6.333335876464844C28.500048046875,6.333335876464844,9.500078046875,6.333335876464844,9.500078046875,6.333335876464844C9.500078046875,6.333335876464844,9.500078046875,9.500005876464844,9.500078046875,9.500005876464844C9.500078046875,9.500005876464844,9.500078046875,9.500005876464844,9.500078046875,9.500005876464844ZM26.916748046875,7.916665876464844C26.916748046875,7.916665876464844,26.916748046875,9.500005876464844,26.916748046875,9.500005876464844C26.916748046875,9.500005876464844,30.083448046875,9.500005876464844,30.083448046875,9.500005876464844C30.083448046875,9.500005876464844,30.083448046875,7.916665876464844,30.083448046875,7.916665876464844C30.083448046875,7.916665876464844,26.916748046875,7.916665876464844,26.916748046875,7.916665876464844C26.916748046875,7.916665876464844,26.916748046875,7.916665876464844,26.916748046875,7.916665876464844Z"
			      fill = "#FFFFFF"
			      fill-opacity = "1"/>
		</g>
	</g>
</svg>