<svg xmlns = "http://www.w3.org/2000/svg"
     fill = "none"
     version = "1.1"
     width = "32"
     height = "33"
     viewBox = "0 0 32 33">
	<defs>
		<clipPath id = "master_svg0_1_447">
			<rect x = "0"
			      y = "0"
			      width = "32"
			      height = "33"
			      rx = "0"/>
		</clipPath>
	</defs>
	<g style = "mix-blend-mode:passthrough"
	   clip-path = "url(#master_svg0_1_447)">
		<g style = "mix-blend-mode:passthrough">
			<path d = "M8.000078046875,8.25C8.000078046875,8.25,8.000078046875,6.875,8.000078046875,6.875C7.263701046875,6.875,6.666748046875,7.490608,6.666748046875,8.25C6.666748046875,8.25,8.000078046875,8.25,8.000078046875,8.25C8.000078046875,8.25,8.000078046875,8.25,8.000078046875,8.25ZM24.000048046875,8.25C24.000048046875,8.25,25.333448046875,8.25,25.333448046875,8.25C25.333448046875,7.490608,24.736448046875,6.875,24.000048046875,6.875C24.000048046875,6.875,24.000048046875,8.25,24.000048046875,8.25C24.000048046875,8.25,24.000048046875,8.25,24.000048046875,8.25ZM8.000078046875,9.625C8.000078046875,9.625,24.000048046875,9.625,24.000048046875,9.625C24.000048046875,9.625,24.000048046875,6.875,24.000048046875,6.875C24.000048046875,6.875,8.000078046875,6.875,8.000078046875,6.875C8.000078046875,6.875,8.000078046875,9.625,8.000078046875,9.625C8.000078046875,9.625,8.000078046875,9.625,8.000078046875,9.625ZM22.666748046875,8.25C22.666748046875,8.25,22.666748046875,27.5,22.666748046875,27.5C22.666748046875,27.5,25.333448046875,27.5,25.333448046875,27.5C25.333448046875,27.5,25.333448046875,8.25,25.333448046875,8.25C25.333448046875,8.25,22.666748046875,8.25,22.666748046875,8.25C22.666748046875,8.25,22.666748046875,8.25,22.666748046875,8.25ZM22.666748046875,27.5C22.666748046875,27.5,9.333418046875,27.5,9.333418046875,27.5C9.333418046875,27.5,9.333418046875,30.25,9.333418046875,30.25C9.333418046875,30.25,22.666748046875,30.25,22.666748046875,30.25C22.666748046875,30.25,22.666748046875,27.5,22.666748046875,27.5C22.666748046875,27.5,22.666748046875,27.5,22.666748046875,27.5ZM9.333418046875,27.5C9.333418046875,27.5,9.333418046875,8.25,9.333418046875,8.25C9.333418046875,8.25,6.666748046875,8.25,6.666748046875,8.25C6.666748046875,8.25,6.666748046875,27.5,6.666748046875,27.5C6.666748046875,27.5,9.333418046875,27.5,9.333418046875,27.5C9.333418046875,27.5,9.333418046875,27.5,9.333418046875,27.5ZM9.333418046875,27.5C9.333418046875,27.5,9.333418046875,27.5,9.333418046875,27.5C9.333418046875,27.5,6.666748046875,27.5,6.666748046875,27.5C6.666748046875,29.0188,7.860658046875,30.25,9.333418046875,30.25C9.333418046875,30.25,9.333418046875,27.5,9.333418046875,27.5C9.333418046875,27.5,9.333418046875,27.5,9.333418046875,27.5ZM22.666748046875,27.5C22.666748046875,27.5,22.666748046875,30.25,22.666748046875,30.25C24.139548046875,30.25,25.333448046875,29.0188,25.333448046875,27.5C25.333448046875,27.5,22.666748046875,27.5,22.666748046875,27.5C22.666748046875,27.5,22.666748046875,27.5,22.666748046875,27.5Z"
			      fill = "#FFFFFF"
			      fill-opacity = "1"/>
		</g>
		<g style = "mix-blend-mode:passthrough">
			<path d = "M5.33333,6.875C4.596953,6.875,4,7.490608,4,8.25C4,9.00939,4.596953,9.625,5.33333,9.625C5.33333,9.625,5.33333,6.875,5.33333,6.875C5.33333,6.875,5.33333,6.875,5.33333,6.875ZM26.6667,9.625C27.4031,9.625,28,9.00939,28,8.25C28,7.490608,27.4031,6.875,26.6667,6.875C26.6667,6.875,26.6667,9.625,26.6667,9.625C26.6667,9.625,26.6667,9.625,26.6667,9.625ZM5.33333,9.625C5.33333,9.625,26.6667,9.625,26.6667,9.625C26.6667,9.625,26.6667,6.875,26.6667,6.875C26.6667,6.875,5.33333,6.875,5.33333,6.875C5.33333,6.875,5.33333,9.625,5.33333,9.625C5.33333,9.625,5.33333,9.625,5.33333,9.625Z"
			      fill = "#FFFFFF"
			      fill-opacity = "1"/>
		</g>
		<g style = "mix-blend-mode:passthrough">
			<path d = "M21.333251953125,8.25C21.333251953125,8.25,21.333251953125,9.625,21.333251953125,9.625C22.069651953125,9.625,22.666551953125,9.00939,22.666551953125,8.25C22.666551953125,8.25,21.333251953125,8.25,21.333251953125,8.25C21.333251953125,8.25,21.333251953125,8.25,21.333251953125,8.25ZM10.666581953125,8.25C10.666581953125,8.25,9.333251953125,8.25,9.333251953125,8.25C9.333251953125,9.00939,9.930204953125,9.625,10.666581953125,9.625C10.666581953125,9.625,10.666581953125,8.25,10.666581953125,8.25C10.666581953125,8.25,10.666581953125,8.25,10.666581953125,8.25ZM11.999921953125,5.5C11.999921953125,5.5,19.999951953125,5.5,19.999951953125,5.5C19.999951953125,5.5,19.999951953125,2.75,19.999951953125,2.75C19.999951953125,2.75,11.999921953125,2.75,11.999921953125,2.75C11.999921953125,2.75,11.999921953125,5.5,11.999921953125,5.5C11.999921953125,5.5,11.999921953125,5.5,11.999921953125,5.5ZM19.999951953125,5.5C19.999951953125,5.5,19.999951953125,8.25,19.999951953125,8.25C19.999951953125,8.25,22.666551953125,8.25,22.666551953125,8.25C22.666551953125,8.25,22.666551953125,5.5,22.666551953125,5.5C22.666551953125,5.5,19.999951953125,5.5,19.999951953125,5.5C19.999951953125,5.5,19.999951953125,5.5,19.999951953125,5.5ZM21.333251953125,6.875C21.333251953125,6.875,10.666581953125,6.875,10.666581953125,6.875C10.666581953125,6.875,10.666581953125,9.625,10.666581953125,9.625C10.666581953125,9.625,21.333251953125,9.625,21.333251953125,9.625C21.333251953125,9.625,21.333251953125,6.875,21.333251953125,6.875C21.333251953125,6.875,21.333251953125,6.875,21.333251953125,6.875ZM11.999921953125,8.25C11.999921953125,8.25,11.999921953125,5.5,11.999921953125,5.5C11.999921953125,5.5,9.333251953125,5.5,9.333251953125,5.5C9.333251953125,5.5,9.333251953125,8.25,9.333251953125,8.25C9.333251953125,8.25,11.999921953125,8.25,11.999921953125,8.25C11.999921953125,8.25,11.999921953125,8.25,11.999921953125,8.25ZM19.999951953125,5.5C19.999951953125,5.5,22.666551953125,5.5,22.666551953125,5.5C22.666551953125,3.98122,21.472651953125002,2.75,19.999951953125,2.75C19.999951953125,2.75,19.999951953125,5.5,19.999951953125,5.5C19.999951953125,5.5,19.999951953125,5.5,19.999951953125,5.5ZM11.999921953125,2.75C10.527161953125,2.75,9.333251953125,3.98122,9.333251953125,5.5C9.333251953125,5.5,11.999921953125,5.5,11.999921953125,5.5C11.999921953125,5.5,11.999921953125,5.5,11.999921953125,5.5C11.999921953125,5.5,11.999921953125,2.75,11.999921953125,2.75C11.999921953125,2.75,11.999921953125,2.75,11.999921953125,2.75Z"
			      fill = "#FFFFFF"
			      fill-opacity = "1"/>
		</g>
	</g>
</svg>